<svg id="Layer_4" data-name="Layer 4" xmlns="http://www.w3.org/2000/svg" xmlns:xlink="http://www.w3.org/1999/xlink" viewBox="0 0 1080 1080"><defs><linearGradient id="linear-gradient" x1="1.46" y1="538.33" x2="1087.46" y2="538.33" gradientUnits="userSpaceOnUse"><stop offset="0" stop-color="#cfd947"/><stop offset="1" stop-color="#1d1d1b" stop-opacity="0"/></linearGradient><linearGradient id="yellow_black_" x1="133.04" y1="115.01" x2="133.04" y2="867.98" xlink:href="#linear-gradient"/><linearGradient id="yellow_black_2" x1="935.01" y1="916.99" x2="182.05" y2="916.99" xlink:href="#linear-gradient"/><linearGradient id="yellow_black_3" x1="-457.67" y1="2043.24" x2="280" y2="2043.24" gradientTransform="translate(-828.29 -1011.16) rotate(-45)" xlink:href="#linear-gradient"/><linearGradient id="yellow_black_4" x1="931.45" y1="867.89" x2="931.45" y2="13.56" xlink:href="#linear-gradient"/><linearGradient id="yellow_black_5" x1="181.96" y1="120.18" x2="1028.49" y2="120.18" xlink:href="#linear-gradient"/><linearGradient id="linear-gradient-2" x1="382.58" y1="486.04" x2="757.01" y2="486.04" gradientUnits="userSpaceOnUse"><stop offset="0" stop-color="#cfd947"/><stop offset="0.27" stop-color="#929938" stop-opacity="0.66"/><stop offset="0.53" stop-color="#60642c" stop-opacity="0.38"/><stop offset="0.74" stop-color="#3c3d23" stop-opacity="0.17"/><stop offset="0.9" stop-color="#25261d" stop-opacity="0.05"/><stop offset="1" stop-color="#1d1d1b" stop-opacity="0"/></linearGradient><linearGradient id="yellow_black_6" x1="612.34" y1="483.5" x2="541.22" y2="483.5" xlink:href="#linear-gradient"/></defs><rect x="1.96" y="-6.19" width="1085" height="1089.04" style="fill:#121212;stroke-miterlimit:10;stroke:url(#linear-gradient)"/><polygon points="182.05 123.66 182.05 867.98 84.03 867.98 180.93 115.01 182.05 123.66" style="fill:url(#yellow_black_)"/><polygon points="935.01 869.09 182.05 966 182.05 867.98 926.37 867.98 935.01 869.09" style="fill:url(#yellow_black_2)"/><ellipse cx="553.69" cy="496.45" rx="363.95" ry="366.1" style="fill:none;stroke-miterlimit:10;stroke-width:7.618488550186157px;stroke:url(#yellow_black_3)"/><line x1="931.45" y1="867.89" x2="931.45" y2="13.56" style="fill:none;stroke-miterlimit:10;stroke-width:11.138575489209513px;stroke:url(#yellow_black_4)"/><line x1="1028.49" y1="120.18" x2="181.96" y2="120.18" style="fill:none;stroke-miterlimit:10;stroke-width:11.138575489209513px;stroke:url(#yellow_black_5)"/><rect x="397.74" y="313.98" width="344.1" height="344.1" style="fill:#1d1d1b;stroke-miterlimit:10;stroke-width:30.328423372353406px;stroke:url(#linear-gradient-2)"/><circle cx="576.78" cy="483.5" r="35.56" style="fill:url(#yellow_black_6)"/><path d="M431.86,99a9.47,9.47,0,0,0,4.46,1.3c2.4,0,3.54-1.19,3.54-2.75s-.95-2.43-3.39-3.35c-3.35-1.22-4.91-3-4.91-5.22,0-3,2.44-5.4,6.36-5.4a8.53,8.53,0,0,1,4.49,1.14l-.8,2.44a7.08,7.08,0,0,0-3.77-1.11c-2,0-3,1.14-3,2.51,0,1.53,1.07,2.21,3.47,3.17,3.16,1.18,4.84,2.78,4.84,5.52,0,3.27-2.55,5.56-6.86,5.56a10.43,10.43,0,0,1-5.18-1.3Z" style="fill:#ffed00"/><path d="M455.14,77a39.19,39.19,0,0,1,6.36-.49c3.27,0,5.67.76,7.2,2.13a7,7,0,0,1,2.24,5.37,7.55,7.55,0,0,1-2,5.49,10.72,10.72,0,0,1-7.84,2.82,11.45,11.45,0,0,1-2.67-.23v10.28h-3.31Zm3.31,12.38a11.1,11.1,0,0,0,2.74.27c4,0,6.44-2,6.44-5.45s-2.44-5.06-6.06-5.06a14.16,14.16,0,0,0-3.12.26Z" style="fill:#ffed00"/><path d="M486.33,76.74V87.48h12.42V76.74h3.35v25.67h-3.35v-12H486.33v12H483V76.74Z" style="fill:#ffed00"/><path d="M528.73,90.38h-9.94v9.25h11.12v2.78H515.44V76.74h13.9v2.78H518.79v8.11h9.94Z" style="fill:#ffed00"/><path d="M541.83,77.08a39.21,39.21,0,0,1,6.36-.53c3.55,0,5.87.69,7.43,2.09a6.57,6.57,0,0,1,2,4.92,6.73,6.73,0,0,1-4.8,6.51v.11c1.94.69,3.12,2.52,3.73,5.18a41.47,41.47,0,0,0,2,7h-3.42a32.24,32.24,0,0,1-1.68-6.13c-.76-3.54-2.17-4.88-5.18-5h-3.12v11.12h-3.32Zm3.32,11.7h3.39c3.54,0,5.79-2,5.79-4.88,0-3.31-2.4-4.76-5.91-4.76a14,14,0,0,0-3.27.27Z" style="fill:#ffed00"/><path d="M583.2,90.38h-9.94v9.25h11.12v2.78H569.91V76.74h13.9v2.78H573.26v8.11h9.94Z" style="fill:#ffed00"/><path d="M627.77,75.37V97.65c0,1.64.07,3.5.15,4.76h-3l-.15-3.2h-.12a6.65,6.65,0,0,1-6.21,3.62c-4.45,0-7.92-3.77-7.92-9.37,0-6.13,3.81-9.86,8.27-9.86a6.18,6.18,0,0,1,5.56,2.78h.07v-11Zm-3.32,16.11a5.64,5.64,0,0,0-.15-1.41,4.94,4.94,0,0,0-4.84-3.85c-3.46,0-5.52,3-5.52,7.09,0,3.73,1.87,6.81,5.45,6.81a5.08,5.08,0,0,0,4.91-4,5.62,5.62,0,0,0,.15-1.45Z" style="fill:#ffed00"/><path d="M644.42,76.74v25.67h-3.36V76.74Z" style="fill:#ffed00"/><path d="M675.72,101.61a16.25,16.25,0,0,1-6.77,1.22c-7.24,0-12.65-4.57-12.65-13,0-8.07,5.45-13.48,13.41-13.48a14,14,0,0,1,6.09,1.14L675,80.17a11.75,11.75,0,0,0-5.14-1.07c-6,0-10,3.85-10,10.59,0,6.32,3.62,10.32,9.83,10.32a13.31,13.31,0,0,0,5.45-1.07Z" style="fill:#ffed00"/><path d="M700.79,90.38h-9.94v9.25H702v2.78H687.5V76.74h13.9v2.78H690.85v8.11h9.94Z" style="fill:#ffed00"/><path d="M730.77,84l3.62,10.32c.61,1.71,1.1,3.24,1.48,4.76H736c.42-1.52,1-3,1.56-4.76L741.13,84h3.5l-7.23,18.43h-3.2l-7-18.43Z" style="fill:#ffed00"/><path d="M758.84,76.74v25.67h-3.35V76.74Z" style="fill:#ffed00"/><path d="M771.83,98.37a11.19,11.19,0,0,0,5.91,1.68c3.39,0,5.37-1.79,5.37-4.38,0-2.36-1.37-3.77-4.84-5.07-4.19-1.52-6.78-3.73-6.78-7.31,0-4,3.31-7,8.3-7a11.46,11.46,0,0,1,5.64,1.26l-.91,2.7a9.57,9.57,0,0,0-4.84-1.22c-3.51,0-4.84,2.1-4.84,3.85,0,2.4,1.56,3.58,5.11,5,4.34,1.68,6.51,3.77,6.51,7.54,0,4-2.9,7.43-9,7.43a13.17,13.17,0,0,1-6.55-1.68Z" style="fill:#ffed00"/><path d="M802,76.74V92c0,5.72,2.56,8.15,6,8.15,3.77,0,6.25-2.51,6.25-8.15V76.74h3.35v15c0,7.88-4.15,11.08-9.71,11.08-5.26,0-9.22-3-9.22-11V76.74Z" style="fill:#ffed00"/><path d="M833.77,94.34l-2.67,8.07h-3.42l8.76-25.67h4l8.76,25.67h-3.54l-2.75-8.07Zm8.46-2.59-2.56-7.39c-.57-1.68-.95-3.2-1.33-4.69h-.08c-.38,1.49-.76,3.09-1.29,4.65l-2.51,7.43Z" style="fill:#ffed00"/><path d="M860.51,76.74h3.35V99.63h11v2.78H860.51Z" style="fill:#ffed00"/><path d="M885.73,98.37a11.15,11.15,0,0,0,5.9,1.68c3.39,0,5.37-1.79,5.37-4.38,0-2.36-1.37-3.77-4.83-5.07-4.19-1.52-6.78-3.73-6.78-7.31,0-4,3.31-7,8.3-7a11.49,11.49,0,0,1,5.64,1.26l-.92,2.7a9.54,9.54,0,0,0-4.84-1.22c-3.5,0-4.83,2.1-4.83,3.85,0,2.4,1.56,3.58,5.1,5,4.34,1.68,6.51,3.77,6.51,7.54,0,4-2.89,7.43-9,7.43a13.2,13.2,0,0,1-6.55-1.68Z" style="fill:#ffed00"/></svg>