<svg xmlns="http://www.w3.org/2000/svg" xmlns:xlink="http://www.w3.org/1999/xlink" viewBox="0 0 1080 1080"><defs><linearGradient id="yellow_black_" x1="120.05" y1="149.68" x2="120.05" y2="907.66" gradientUnits="userSpaceOnUse"><stop offset="0" stop-color="#cfd947"/><stop offset="1" stop-color="#1d1d1b" stop-opacity="0"/></linearGradient><linearGradient id="yellow_black_2" x1="927.36" y1="956.99" x2="169.38" y2="956.99" xlink:href="#yellow_black_"/><linearGradient id="yellow_black_3" x1="-171.46" y1="1284.52" x2="571.12" y2="1284.52" gradientTransform="translate(-506.11 -233.34) rotate(-45)" xlink:href="#yellow_black_"/><linearGradient id="yellow_black_4" x1="923.77" y1="907.57" x2="923.77" y2="47.56" xlink:href="#yellow_black_"/><linearGradient id="yellow_black_5" x1="169.29" y1="154.88" x2="1021.45" y2="154.88" xlink:href="#yellow_black_"/><linearGradient id="linear-gradient" x1="740.62" y1="336.65" x2="322.25" y2="755.02" gradientUnits="userSpaceOnUse"><stop offset="0" stop-color="#cfd947"/><stop offset="0.01" stop-color="#bfc843" stop-opacity="0.91"/><stop offset="0.05" stop-color="#9ea53b" stop-opacity="0.72"/><stop offset="0.09" stop-color="#7f8433" stop-opacity="0.55"/><stop offset="0.13" stop-color="#64682d" stop-opacity="0.4"/><stop offset="0.17" stop-color="#4e5027" stop-opacity="0.27"/><stop offset="0.22" stop-color="#3c3d23" stop-opacity="0.17"/><stop offset="0.28" stop-color="#2e2f1f" stop-opacity="0.09"/><stop offset="0.36" stop-color="#24251d" stop-opacity="0.04"/><stop offset="0.46" stop-color="#1f1f1b" stop-opacity="0.01"/><stop offset="0.75" stop-color="#1d1d1b" stop-opacity="0"/></linearGradient><linearGradient id="yellow_black_6" x1="567.54" y1="495.48" x2="531.74" y2="557.49" xlink:href="#yellow_black_"/></defs><g id="Layer_2" data-name="Layer 2"><polygon points="169.38 158.38 169.38 907.66 70.71 907.66 168.26 149.68 169.38 158.38" style="fill:url(#yellow_black_)"/><polygon points="927.36 908.78 169.38 1006.33 169.38 907.66 918.66 907.66 927.36 908.78" style="fill:url(#yellow_black_2)"/><ellipse cx="543.49" cy="533.65" rx="366.37" ry="368.53" style="fill:none;stroke-miterlimit:10;stroke-width:7.66915941238403px;stroke:url(#yellow_black_3)"/><line x1="923.77" y1="907.57" x2="923.77" y2="47.56" style="fill:none;stroke-miterlimit:10;stroke-width:11.2126585858732px;stroke:url(#yellow_black_4)"/><line x1="1021.45" y1="154.88" x2="169.29" y2="154.88" style="fill:none;stroke-miterlimit:10;stroke-width:11.2126585858732px;stroke:url(#yellow_black_5)"/><polygon points="725.35 351.91 725.35 687.74 339.91 737.35 389.52 351.91 725.35 351.91" style="fill:none;stroke-miterlimit:10;stroke-width:30.530138889973px;stroke:url(#linear-gradient)"/><circle cx="549.64" cy="526.48" r="35.8" style="fill:url(#yellow_black_6)"/><path d="M420.86,133.54a8.74,8.74,0,0,0,4.45,1.35c2.45,0,3.6-1.23,3.6-2.76s-1-2.5-3.45-3.42c-3.34-1.19-4.91-3-4.91-5.25,0-3,2.42-5.44,6.4-5.44a9.23,9.23,0,0,1,4.57,1.15l-.85,2.45a7.19,7.19,0,0,0-3.79-1.07c-2,0-3.11,1.15-3.11,2.53,0,1.53,1.11,2.22,3.53,3.14,3.22,1.23,4.87,2.84,4.87,5.6,0,3.26-2.53,5.56-6.94,5.56a10.59,10.59,0,0,1-5.22-1.27Z" style="fill:#ffed00"/><path d="M444.29,111.46a38.45,38.45,0,0,1,6.4-.5c3.3,0,5.71.77,7.25,2.15a6.92,6.92,0,0,1,2.26,5.4,7.65,7.65,0,0,1-2,5.53c-1.77,1.87-4.64,2.83-7.9,2.83a11.63,11.63,0,0,1-2.69-.23V137h-3.33Zm3.33,12.46a11.27,11.27,0,0,0,2.76.27c4,0,6.48-2,6.48-5.52s-2.41-5.06-6.09-5.06a14.42,14.42,0,0,0-3.15.26Z" style="fill:#ffed00"/><path d="M475.69,111.15V122h12.5V111.15h3.38V137h-3.38V124.88h-12.5V137h-3.33V111.15Z" style="fill:#ffed00"/><path d="M518.41,124.88h-10v9.32h11.2V137H505V111.15h14V114H508.36v8.17h10Z" style="fill:#ffed00"/><path d="M531.56,111.5A34.29,34.29,0,0,1,538,111c3.57,0,5.87.65,7.48,2.11a6.41,6.41,0,0,1,2,4.91,6.77,6.77,0,0,1-4.87,6.59v.12c2,.69,3.19,2.53,3.8,5.21a41.62,41.62,0,0,0,2,7.1h-3.45a34.13,34.13,0,0,1-1.72-6.18c-.77-3.56-2.15-4.91-5.18-5H534.9V137h-3.34Zm3.34,11.77h3.41c3.57,0,5.83-2,5.83-4.91,0-3.34-2.42-4.79-5.95-4.83a13.21,13.21,0,0,0-3.29.31Z" style="fill:#ffed00"/><path d="M573.24,124.88h-10v9.32h11.19V137H559.86V111.15h14V114H563.2v8.17h10Z" style="fill:#ffed00"/><path d="M618.11,109.77V132.2c0,1.65,0,3.53.15,4.8h-3l-.15-3.23H615a6.86,6.86,0,0,1-6.33,3.65c-4.48,0-7.93-3.8-7.93-9.44,0-6.17,3.79-10,8.32-10a6.23,6.23,0,0,1,5.6,2.83h.07V109.77ZM614.73,126a6.23,6.23,0,0,0-.15-1.42,5,5,0,0,0-4.87-3.91c-3.49,0-5.56,3.07-5.56,7.17,0,3.76,1.84,6.87,5.48,6.87a5.09,5.09,0,0,0,5-4,6.12,6.12,0,0,0,.15-1.46Z" style="fill:#ffed00"/><path d="M634.82,111.15V137h-3.33V111.15Z" style="fill:#ffed00"/><path d="M666.38,136.15a16.4,16.4,0,0,1-6.82,1.23c-7.29,0-12.77-4.6-12.77-13.08,0-8.09,5.48-13.57,13.5-13.57a13.82,13.82,0,0,1,6.13,1.15l-.8,2.72a12.24,12.24,0,0,0-5.22-1.07c-6.06,0-10.08,3.87-10.08,10.66,0,6.33,3.64,10.39,9.93,10.39a13.36,13.36,0,0,0,5.44-1.07Z" style="fill:#ffed00"/><path d="M691.61,124.88h-10v9.32h11.19V137H678.23V111.15h14V114H681.57v8.17h10Z" style="fill:#ffed00"/><path d="M721.75,118.44l3.65,10.43a47.31,47.31,0,0,1,1.49,4.75H727c.42-1.53,1-3.07,1.57-4.75l3.6-10.43h3.53L728.43,137H725.2l-7.05-18.56Z" style="fill:#ffed00"/><path d="M750,111.15V137h-3.33V111.15Z" style="fill:#ffed00"/><path d="M763.05,132.93a11.83,11.83,0,0,0,6,1.69c3.42,0,5.41-1.8,5.41-4.41,0-2.42-1.38-3.8-4.87-5.14-4.22-1.49-6.82-3.68-6.82-7.32,0-4,3.33-7,8.35-7a11.66,11.66,0,0,1,5.72,1.27l-.92,2.72a10.32,10.32,0,0,0-4.91-1.23c-3.53,0-4.87,2.11-4.87,3.87,0,2.42,1.57,3.61,5.14,5,4.37,1.69,6.59,3.79,6.59,7.59,0,4-3,7.44-9.05,7.44a13.34,13.34,0,0,1-6.59-1.65Z" style="fill:#ffed00"/><path d="M793.42,111.15v15.3c0,5.79,2.57,8.25,6,8.25,3.84,0,6.29-2.54,6.29-8.25v-15.3h3.37v15.07c0,7.94-4.18,11.2-9.77,11.2-5.29,0-9.28-3-9.28-11V111.15Z" style="fill:#ffed00"/><path d="M825.44,128.87,822.76,137H819.3l8.78-25.85h4L840.93,137h-3.56l-2.77-8.13Zm8.47-2.61-2.53-7.44c-.57-1.69-1-3.22-1.34-4.72H830c-.38,1.54-.8,3.11-1.3,4.68l-2.53,7.48Z" style="fill:#ffed00"/><path d="M852.4,111.15h3.33v23h11V137H852.4Z" style="fill:#ffed00"/><path d="M877.7,132.93a11.84,11.84,0,0,0,6,1.69c3.41,0,5.4-1.8,5.4-4.41,0-2.42-1.38-3.8-4.87-5.14-4.22-1.49-6.82-3.68-6.82-7.32,0-4,3.33-7,8.36-7a11.64,11.64,0,0,1,5.71,1.27l-.92,2.72a10.28,10.28,0,0,0-4.91-1.23c-3.53,0-4.87,2.11-4.87,3.87,0,2.42,1.57,3.61,5.14,5,4.37,1.69,6.6,3.79,6.6,7.59,0,4-3,7.44-9,7.44a13.35,13.35,0,0,1-6.6-1.65Z" style="fill:#ffed00"/></g></svg>