<svg xmlns="http://www.w3.org/2000/svg" xmlns:xlink="http://www.w3.org/1999/xlink" viewBox="0 0 1080 1080"><defs><linearGradient id="yellow_black_" x1="218.49" y1="200.3" x2="218.49" y2="793.3" gradientUnits="userSpaceOnUse"><stop offset="0" stop-color="#cfd947"/><stop offset="1" stop-color="#1d1d1b" stop-opacity="0"/></linearGradient><linearGradient id="yellow_black_2" x1="850.09" y1="831.9" x2="257.09" y2="831.9" xlink:href="#yellow_black_"/><linearGradient id="yellow_black_3" x1="-62.9" y1="1265.66" x2="518.06" y2="1265.66" gradientTransform="translate(-506.11 -233.34) rotate(-45)" xlink:href="#yellow_black_"/><linearGradient id="yellow_black_4" x1="847.28" y1="793.23" x2="847.28" y2="120.4" xlink:href="#yellow_black_"/><linearGradient id="yellow_black_5" x1="257.02" y1="204.37" x2="923.71" y2="204.37" xlink:href="#yellow_black_"/><linearGradient id="linear-gradient" x1="704" y1="346.57" x2="376.68" y2="673.89" gradientUnits="userSpaceOnUse"><stop offset="0" stop-color="#cfd947"/><stop offset="0.01" stop-color="#bfc843" stop-opacity="0.91"/><stop offset="0.05" stop-color="#9ea53b" stop-opacity="0.72"/><stop offset="0.09" stop-color="#7f8433" stop-opacity="0.55"/><stop offset="0.13" stop-color="#64682d" stop-opacity="0.4"/><stop offset="0.17" stop-color="#4e5027" stop-opacity="0.27"/><stop offset="0.22" stop-color="#3c3d23" stop-opacity="0.17"/><stop offset="0.28" stop-color="#2e2f1f" stop-opacity="0.09"/><stop offset="0.36" stop-color="#24251d" stop-opacity="0.04"/><stop offset="0.46" stop-color="#1f1f1b" stop-opacity="0.01"/><stop offset="0.75" stop-color="#1d1d1b" stop-opacity="0"/></linearGradient><linearGradient id="yellow_black_6" x1="582.59" y1="495.09" x2="526.58" y2="495.09" xlink:href="#yellow_black_"/></defs><g id="Layer_2" data-name="Layer 2"><rect x="-2.5" y="-0.52" width="1085" height="1089.04" style="fill:#121212"/><polygon points="257.09 207.11 257.09 793.3 179.89 793.3 256.21 200.3 257.09 207.11" style="fill:url(#yellow_black_)"/><polygon points="850.09 794.18 257.09 870.5 257.09 793.3 843.28 793.3 850.09 794.18" style="fill:url(#yellow_black_2)"/><ellipse cx="549.77" cy="500.7" rx="286.63" ry="288.32" style="fill:none;stroke-miterlimit:10;stroke-width:6px;stroke:url(#yellow_black_3)"/><line x1="847.28" y1="793.23" x2="847.28" y2="120.4" style="fill:none;stroke-miterlimit:10;stroke-width:8.77227188765993px;stroke:url(#yellow_black_4)"/><line x1="923.71" y1="204.37" x2="257.02" y2="204.37" style="fill:none;stroke-miterlimit:10;stroke-width:8.77227188765993px;stroke:url(#yellow_black_5)"/><polygon points="692.05 358.51 692.05 621.25 390.5 660.07 429.31 358.51 692.05 358.51" style="fill:none;stroke-miterlimit:10;stroke-width:23.8853860625247px;stroke:url(#linear-gradient)"/><circle cx="554.58" cy="495.09" r="28.01" style="fill:url(#yellow_black_6)"/><path d="M453.83,187.67a6.92,6.92,0,0,0,3.48,1.05c1.92,0,2.82-1,2.82-2.16s-.75-1.95-2.7-2.67c-2.61-.93-3.84-2.37-3.84-4.11,0-2.34,1.89-4.26,5-4.26a7.25,7.25,0,0,1,3.57.9l-.66,1.92a5.65,5.65,0,0,0-3-.84c-1.56,0-2.43.9-2.43,2s.87,1.74,2.76,2.46c2.52,1,3.81,2.22,3.81,4.38,0,2.55-2,4.35-5.43,4.35a8.28,8.28,0,0,1-4.08-1Z" style="fill:#ffed00"/><path d="M472.16,170.39a30.25,30.25,0,0,1,5-.39c2.58,0,4.47.6,5.67,1.68a5.44,5.44,0,0,1,1.77,4.23,6,6,0,0,1-1.56,4.32,8.38,8.38,0,0,1-6.18,2.22,9,9,0,0,1-2.1-.18v8.1h-2.61Zm2.61,9.75a8.75,8.75,0,0,0,2.16.21c3.15,0,5.07-1.53,5.07-4.32s-1.89-4-4.77-4a11,11,0,0,0-2.46.21Z" style="fill:#ffed00"/><path d="M496.73,170.15v8.46h9.78v-8.46h2.64v20.22h-2.64v-9.48h-9.78v9.48h-2.61V170.15Z" style="fill:#ffed00"/><path d="M530.15,180.89h-7.86v7.29h8.76v2.19H519.68V170.15H530.6v2.19h-8.31v6.39h7.86Z" style="fill:#ffed00"/><path d="M540.44,170.42a27.19,27.19,0,0,1,5-.42c2.79,0,4.59.51,5.85,1.65a5,5,0,0,1,1.59,3.84,5.31,5.31,0,0,1-3.81,5.16v.09c1.56.54,2.49,2,3,4.08a32.18,32.18,0,0,0,1.56,5.55h-2.7a26.2,26.2,0,0,1-1.35-4.83c-.6-2.79-1.68-3.84-4-3.93h-2.46v8.76h-2.61Zm2.61,9.21h2.67c2.79,0,4.56-1.53,4.56-3.84,0-2.61-1.89-3.75-4.65-3.78a10.74,10.74,0,0,0-2.58.24Z" style="fill:#ffed00"/><path d="M573.05,180.89h-7.86v7.29H574v2.19H562.58V170.15H573.5v2.19h-8.31v6.39h7.86Z" style="fill:#ffed00"/><path d="M608.15,169.07v17.55c0,1.29,0,2.76.12,3.75H605.9l-.12-2.52h-.06a5.37,5.37,0,0,1-5,2.85c-3.51,0-6.21-3-6.21-7.38,0-4.83,3-7.8,6.51-7.8a4.85,4.85,0,0,1,4.38,2.22h.06v-8.67Zm-2.64,12.69a4.66,4.66,0,0,0-.12-1.11,3.88,3.88,0,0,0-3.81-3.06c-2.73,0-4.35,2.4-4.35,5.61,0,2.94,1.44,5.37,4.29,5.37a4,4,0,0,0,3.87-3.15,4.59,4.59,0,0,0,.12-1.14Z" style="fill:#ffed00"/><path d="M621.23,170.15v20.22h-2.61V170.15Z" style="fill:#ffed00"/><path d="M645.92,189.71a13,13,0,0,1-5.34,1c-5.7,0-10-3.6-10-10.23,0-6.33,4.29-10.62,10.56-10.62a10.84,10.84,0,0,1,4.8.9l-.63,2.13a9.51,9.51,0,0,0-4.08-.84c-4.74,0-7.89,3-7.89,8.34,0,5,2.85,8.13,7.77,8.13a10.45,10.45,0,0,0,4.26-.84Z" style="fill:#ffed00"/><path d="M665.66,180.89H657.8v7.29h8.76v2.19H655.19V170.15h10.92v2.19H657.8v6.39h7.86Z" style="fill:#ffed00"/><path d="M689.24,175.85l2.85,8.16a37.34,37.34,0,0,1,1.17,3.72h.09c.33-1.2.75-2.4,1.23-3.72l2.82-8.16h2.76l-5.7,14.52h-2.52l-5.52-14.52Z" style="fill:#ffed00"/><path d="M711.35,170.15v20.22h-2.61V170.15Z" style="fill:#ffed00"/><path d="M721.55,187.19a9.25,9.25,0,0,0,4.68,1.32c2.67,0,4.23-1.41,4.23-3.45s-1.08-3-3.81-4c-3.3-1.17-5.34-2.88-5.34-5.73,0-3.15,2.61-5.49,6.54-5.49a9.19,9.19,0,0,1,4.47,1l-.72,2.13a8.05,8.05,0,0,0-3.84-1c-2.76,0-3.81,1.65-3.81,3,0,1.89,1.23,2.82,4,3.9,3.42,1.32,5.16,3,5.16,5.94,0,3.12-2.31,5.82-7.08,5.82a10.45,10.45,0,0,1-5.16-1.29Z" style="fill:#ffed00"/><path d="M745.31,170.15v12c0,4.53,2,6.45,4.71,6.45,3,0,4.92-2,4.92-6.45v-12h2.64v11.79c0,6.21-3.27,8.76-7.65,8.76-4.14,0-7.26-2.37-7.26-8.64V170.15Z" style="fill:#ffed00"/><path d="M770.36,184l-2.1,6.36h-2.7l6.87-20.22h3.15l6.9,20.22h-2.79L777.53,184Zm6.63-2-2-5.82c-.45-1.32-.75-2.52-1-3.69h-.06c-.3,1.2-.63,2.43-1,3.66l-2,5.85Z" style="fill:#ffed00"/><path d="M791.45,170.15h2.61v18h8.64v2.19H791.45Z" style="fill:#ffed00"/><path d="M811.25,187.19a9.25,9.25,0,0,0,4.68,1.32c2.67,0,4.23-1.41,4.23-3.45s-1.08-3-3.81-4c-3.3-1.17-5.34-2.88-5.34-5.73,0-3.15,2.61-5.49,6.54-5.49a9.19,9.19,0,0,1,4.47,1l-.72,2.13a8.05,8.05,0,0,0-3.84-1c-2.76,0-3.81,1.65-3.81,3,0,1.89,1.23,2.82,4,3.9,3.42,1.32,5.16,3,5.16,5.94,0,3.12-2.31,5.82-7.08,5.82a10.45,10.45,0,0,1-5.16-1.29Z" style="fill:#ffed00"/></g></svg>