{
	"asset":{
		"generator":"Khronos glTF Blender I/O v4.1.62",
		"version":"2.0"
	},
	"scene":0,
	"scenes":[
		{
			"name":"Scene",
			"nodes":[
				1
			]
		}
	],
	"nodes":[
		{
			"mesh":0,
			"name":"tab-01",
			"translation":[
				0.7660834193229675,
				5.344254016876221,
				3.6619603633880615e-06
			]
		},
		{
			"children":[
				0
			],
			"mesh":1,
			"name":"can.002",
			"scale":[
				0.13023722171783447,
				0.169698104262352,
				0.13021980226039886
			],
			"translation":[
				0,
				0.06922698020935059,
				-0.0019114017486572266
			]
		}
	],
	"materials":[
		{
			"doubleSided":true,
			"name":"top of can.002",
			"pbrMetallicRoughness":{
				"baseColorFactor":[
					0.800000011920929,
					0.800000011920929,
					0.800000011920929,
					1
				],
				"roughnessFactor":0.15168219804763794
			}
		},
		{
			"name":"test for export",
			"pbrMetallicRoughness":{
				"baseColorTexture":{
					"index":0
				},
				"metallicRoughnessTexture":{
					"index":1
				}
			}
		}
	],
	"meshes":[
		{
			"name":"Circle.002",
			"primitives":[
				{
					"attributes":{
						"POSITION":0,
						"NORMAL":1,
						"TEXCOORD_0":2
					},
					"indices":3,
					"material":0
				}
			]
		},
		{
			"name":"Circle.003",
			"primitives":[
				{
					"attributes":{
						"POSITION":4,
						"NORMAL":5,
						"TEXCOORD_0":6
					},
					"indices":7,
					"material":1
				},
				{
					"attributes":{
						"POSITION":8,
						"NORMAL":9,
						"TEXCOORD_0":10
					},
					"indices":11,
					"material":0
				}
			]
		}
	],
	"textures":[
		{
			"sampler":0,
			"source":0
		},
		{
			"sampler":0,
			"source":0
		}
	],
	"images":[
		{
			"mimeType":"image/png",
			"name":"energy PRODUCT drink-2-130X157 label",
			"uri":"textures/energy%20PRODUCT%20drink-2-130X157%20label.png"
		}
	],
	"accessors":[
		{
			"bufferView":0,
			"componentType":5126,
			"count":614,
			"max":[
				-0.011061906814575195,
				0.15866823494434357,
				0.593783438205719
			],
			"min":[
				-2.494819402694702,
				0.04413389787077904,
				-0.593783438205719
			],
			"type":"VEC3"
		},
		{
			"bufferView":1,
			"componentType":5126,
			"count":614,
			"type":"VEC3"
		},
		{
			"bufferView":2,
			"componentType":5126,
			"count":614,
			"type":"VEC2"
		},
		{
			"bufferView":3,
			"componentType":5123,
			"count":3696,
			"type":"SCALAR"
		},
		{
			"bufferView":4,
			"componentType":5126,
			"count":273,
			"max":[
				2.788649320602417,
				5.294850826263428,
				2.7978057861328125
			],
			"min":[
				-2.7878482341766357,
				-5.110095977783203,
				-2.7978057861328125
			],
			"type":"VEC3"
		},
		{
			"bufferView":5,
			"componentType":5126,
			"count":273,
			"type":"VEC3"
		},
		{
			"bufferView":6,
			"componentType":5126,
			"count":273,
			"type":"VEC2"
		},
		{
			"bufferView":7,
			"componentType":5123,
			"count":1368,
			"type":"SCALAR"
		},
		{
			"bufferView":8,
			"componentType":5126,
			"count":1371,
			"max":[
				2.788649320602417,
				5.463281154632568,
				2.7978057861328125
			],
			"min":[
				-2.7878482341766357,
				-5.4751434326171875,
				-2.7978057861328125
			],
			"type":"VEC3"
		},
		{
			"bufferView":9,
			"componentType":5126,
			"count":1371,
			"type":"VEC3"
		},
		{
			"bufferView":10,
			"componentType":5126,
			"count":1371,
			"type":"VEC2"
		},
		{
			"bufferView":11,
			"componentType":5123,
			"count":7506,
			"type":"SCALAR"
		}
	],
	"bufferViews":[
		{
			"buffer":0,
			"byteLength":7368,
			"byteOffset":0,
			"target":34962
		},
		{
			"buffer":0,
			"byteLength":7368,
			"byteOffset":7368,
			"target":34962
		},
		{
			"buffer":0,
			"byteLength":4912,
			"byteOffset":14736,
			"target":34962
		},
		{
			"buffer":0,
			"byteLength":7392,
			"byteOffset":19648,
			"target":34963
		},
		{
			"buffer":0,
			"byteLength":3276,
			"byteOffset":27040,
			"target":34962
		},
		{
			"buffer":0,
			"byteLength":3276,
			"byteOffset":30316,
			"target":34962
		},
		{
			"buffer":0,
			"byteLength":2184,
			"byteOffset":33592,
			"target":34962
		},
		{
			"buffer":0,
			"byteLength":2736,
			"byteOffset":35776,
			"target":34963
		},
		{
			"buffer":0,
			"byteLength":16452,
			"byteOffset":38512,
			"target":34962
		},
		{
			"buffer":0,
			"byteLength":16452,
			"byteOffset":54964,
			"target":34962
		},
		{
			"buffer":0,
			"byteLength":10968,
			"byteOffset":71416,
			"target":34962
		},
		{
			"buffer":0,
			"byteLength":15012,
			"byteOffset":82384,
			"target":34963
		}
	],
	"samplers":[
		{
			"magFilter":9729,
			"minFilter":9987,
			"wrapS":33071,
			"wrapT":33071
		}
	],
	"buffers":[
		{
			"byteLength":97396,
			"uri":"can.bin"
		}
	]
}
