{
	"asset":{
		"generator":"Khronos glTF Blender I/O v4.1.62",
		"version":"2.0"
	},
	"scene":0,
	"scenes":[
		{
			"name":"Scene",
			"nodes":[
				0
			]
		}
	],
	"nodes":[
		{
			"mesh":0,
			"name":"2middle cube",
			"scale":[
				0.9951221346855164,
				0.9951221346855164,
				0.9951221346855164
			]
		}
	],
	"materials":[
		{
			"doubleSided":true,
			"name":"cube ",
			"pbrMetallicRoughness":{
				"baseColorFactor":[
					0.8232685923576355,
					0.5864302515983582,
					0.08104577660560608,
					1
				],
				"metallicFactor":0.4272727370262146,
				"roughnessFactor":0
			}
		},
		{
			"doubleSided":true,
			"name":"dots",
			"pbrMetallicRoughness":{
				"baseColorFactor":[
					0.025067372247576714,
					0.045071084052324295,
					0.19859427213668823,
					1
				],
				"metallicFactor":0.3590909242630005,
				"roughnessFactor":0
			}
		}
	],
	"meshes":[
		{
			"name":"Mesh",
			"primitives":[
				{
					"attributes":{
						"POSITION":0,
						"NORMAL":1,
						"TEXCOORD_0":2
					},
					"indices":3,
					"material":0
				},
				{
					"attributes":{
						"POSITION":4,
						"NORMAL":5,
						"TEXCOORD_0":6
					},
					"indices":7,
					"material":1
				}
			]
		}
	],
	"accessors":[
		{
			"bufferView":0,
			"componentType":5126,
			"count":3927,
			"max":[
				1.000000238418579,
				1.0000003576278687,
				1.0000001192092896
			],
			"min":[
				-1.0000001192092896,
				-1.000000238418579,
				-1.0000003576278687
			],
			"type":"VEC3"
		},
		{
			"bufferView":1,
			"componentType":5126,
			"count":3927,
			"type":"VEC3"
		},
		{
			"bufferView":2,
			"componentType":5126,
			"count":3927,
			"type":"VEC2"
		},
		{
			"bufferView":3,
			"componentType":5123,
			"count":20448,
			"type":"SCALAR"
		},
		{
			"bufferView":4,
			"componentType":5126,
			"count":1747,
			"max":[
				0.990370512008667,
				0.990370512008667,
				0.990370512008667
			],
			"min":[
				-0.990370512008667,
				-0.990370512008667,
				-0.990370512008667
			],
			"type":"VEC3"
		},
		{
			"bufferView":5,
			"componentType":5126,
			"count":1747,
			"type":"VEC3"
		},
		{
			"bufferView":6,
			"componentType":5126,
			"count":1747,
			"type":"VEC2"
		},
		{
			"bufferView":7,
			"componentType":5123,
			"count":6048,
			"type":"SCALAR"
		}
	],
	"bufferViews":[
		{
			"buffer":0,
			"byteLength":47124,
			"byteOffset":0,
			"target":34962
		},
		{
			"buffer":0,
			"byteLength":47124,
			"byteOffset":47124,
			"target":34962
		},
		{
			"buffer":0,
			"byteLength":31416,
			"byteOffset":94248,
			"target":34962
		},
		{
			"buffer":0,
			"byteLength":40896,
			"byteOffset":125664,
			"target":34963
		},
		{
			"buffer":0,
			"byteLength":20964,
			"byteOffset":166560,
			"target":34962
		},
		{
			"buffer":0,
			"byteLength":20964,
			"byteOffset":187524,
			"target":34962
		},
		{
			"buffer":0,
			"byteLength":13976,
			"byteOffset":208488,
			"target":34962
		},
		{
			"buffer":0,
			"byteLength":12096,
			"byteOffset":222464,
			"target":34963
		}
	],
	"buffers":[
		{
			"byteLength":234560,
			"uri":"cube.bin"
		}
	]
}
