{
	"asset":{
		"generator":"Khronos glTF Blender I/O v4.1.62",
		"version":"2.0"
	},
	"extensionsUsed":[
		"EXT_texture_webp"
	],
	"scene":0,
	"scenes":[
		{
			"name":"Scene",
			"nodes":[
				0
			]
		}
	],
	"nodes":[
		{
			"mesh":0,
			"name":"MUG1",
			"rotation":[
				0,
				0.8840988278388977,
				0,
				0.46730002760887146
			],
			"scale":[
				0.01770966313779354,
				0.01770966686308384,
				0.01770966313779354
			],
			"translation":[
				0.009229464456439018,
				0.03904733806848526,
				0
			]
		}
	],
	"materials":[
		{
			"doubleSided":true,
			"name":"MUG-OUTSIDE",
			"pbrMetallicRoughness":{
				"baseColorFactor":[
					0.7520337104797363,
					0.7520337104797363,
					0.7520337104797363,
					1
				],
				"metallicFactor":0,
				"roughnessFactor":0.13045454025268555
			}
		},
		{
			"alphaCutoff":0.5,
			"alphaMode":"MASK",
			"doubleSided":true,
			"name":"label",
			"pbrMetallicRoughness":{
				"baseColorTexture":{
					"index":0
				},
				"metallicFactor":0,
				"roughnessFactor":0.08527274429798126
			}
		},
		{
			"doubleSided":true,
			"name":"inside",
			"pbrMetallicRoughness":{
				"baseColorFactor":[
					0.009721160866320133,
					0,
					0.015208518132567406,
					1
				],
				"metallicFactor":0,
				"roughnessFactor":0.08500000089406967
			}
		}
	],
	"meshes":[
		{
			"name":"Mesh",
			"primitives":[
				{
					"attributes":{
						"POSITION":0,
						"NORMAL":1,
						"TEXCOORD_0":2
					},
					"indices":3,
					"material":0
				},
				{
					"attributes":{
						"POSITION":4,
						"NORMAL":5,
						"TEXCOORD_0":6
					},
					"indices":7,
					"material":1
				},
				{
					"attributes":{
						"POSITION":8,
						"NORMAL":9,
						"TEXCOORD_0":10
					},
					"indices":11,
					"material":2
				}
			]
		}
	],
	"textures":[
		{
			"extensions":{
				"EXT_texture_webp":{
					"source":0
				}
			},
			"sampler":0,
			"source":1
		}
	],
	"images":[
		{
			"mimeType":"image/webp",
			"name":"01-branding mug-padl",
			"uri":"textures/01-branding%20mug-padl.webp"
		},
		{
			"mimeType":"image/png",
			"name":"01-branding mug-padl",
			"uri":"textures/01-branding%20mug-padl.png"
		}
	],
	"accessors":[
		{
			"bufferView":0,
			"componentType":5126,
			"count":2067,
			"max":[
				2.0468716621398926,
				2.6723875999450684,
				1.5376832485198975
			],
			"min":[
				-2.045407772064209,
				-2.1636524200439453,
				-2.648787021636963
			],
			"type":"VEC3"
		},
		{
			"bufferView":1,
			"componentType":5126,
			"count":2067,
			"type":"VEC3"
		},
		{
			"bufferView":2,
			"componentType":5126,
			"count":2067,
			"type":"VEC2"
		},
		{
			"bufferView":3,
			"componentType":5123,
			"count":9168,
			"type":"SCALAR"
		},
		{
			"bufferView":4,
			"componentType":5126,
			"count":1521,
			"max":[
				2.0448262691497803,
				2.464053153991699,
				0.8218191266059875
			],
			"min":[
				-2.042917013168335,
				-1.8858445882797241,
				-2.647625684738159
			],
			"type":"VEC3"
		},
		{
			"bufferView":5,
			"componentType":5126,
			"count":1521,
			"type":"VEC3"
		},
		{
			"bufferView":6,
			"componentType":5126,
			"count":1521,
			"type":"VEC2"
		},
		{
			"bufferView":7,
			"componentType":5123,
			"count":8064,
			"type":"SCALAR"
		},
		{
			"bufferView":8,
			"componentType":5126,
			"count":2134,
			"max":[
				2.0344035625457764,
				2.6911399364471436,
				3.016355037689209
			],
			"min":[
				-1.9671833515167236,
				-1.5361087322235107,
				-2.6052188873291016
			],
			"type":"VEC3"
		},
		{
			"bufferView":9,
			"componentType":5126,
			"count":2134,
			"type":"VEC3"
		},
		{
			"bufferView":10,
			"componentType":5126,
			"count":2134,
			"type":"VEC2"
		},
		{
			"bufferView":11,
			"componentType":5123,
			"count":10992,
			"type":"SCALAR"
		}
	],
	"bufferViews":[
		{
			"buffer":0,
			"byteLength":24804,
			"byteOffset":0,
			"target":34962
		},
		{
			"buffer":0,
			"byteLength":24804,
			"byteOffset":24804,
			"target":34962
		},
		{
			"buffer":0,
			"byteLength":16536,
			"byteOffset":49608,
			"target":34962
		},
		{
			"buffer":0,
			"byteLength":18336,
			"byteOffset":66144,
			"target":34963
		},
		{
			"buffer":0,
			"byteLength":18252,
			"byteOffset":84480,
			"target":34962
		},
		{
			"buffer":0,
			"byteLength":18252,
			"byteOffset":102732,
			"target":34962
		},
		{
			"buffer":0,
			"byteLength":12168,
			"byteOffset":120984,
			"target":34962
		},
		{
			"buffer":0,
			"byteLength":16128,
			"byteOffset":133152,
			"target":34963
		},
		{
			"buffer":0,
			"byteLength":25608,
			"byteOffset":149280,
			"target":34962
		},
		{
			"buffer":0,
			"byteLength":25608,
			"byteOffset":174888,
			"target":34962
		},
		{
			"buffer":0,
			"byteLength":17072,
			"byteOffset":200496,
			"target":34962
		},
		{
			"buffer":0,
			"byteLength":21984,
			"byteOffset":217568,
			"target":34963
		}
	],
	"samplers":[
		{
			"magFilter":9729,
			"minFilter":9987,
			"wrapS":33071,
			"wrapT":33071
		}
	],
	"buffers":[
		{
			"byteLength":239552,
			"uri":"mug1.bin"
		}
	]
}
