{
	"asset":{
		"generator":"Khronos glTF Blender I/O v4.1.62",
		"version":"2.0"
	},
	"extensionsUsed":[
		"EXT_texture_webp"
	],
	"scene":0,
	"scenes":[
		{
			"name":"Scene",
			"nodes":[
				0
			]
		}
	],
	"nodes":[
		{
			"mesh":0,
			"name":"2middle cube",
			"scale":[
				0.9951221346855164,
				0.9951221346855164,
				0.9951221346855164
			]
		}
	],
	"materials":[
		{
			"name":"cube",
			"pbrMetallicRoughness":{
				"baseColorFactor":[
					1,
					0.7083766460418701,
					0.09758755564689636,
					1
				],
				"metallicFactor":0.4272727370262146,
				"roughnessFactor":0
			}
		},
		{
			"alphaMode":"BLEND",
			"doubleSided":true,
			"name":"cube.logo front",
			"pbrMetallicRoughness":{
				"baseColorTexture":{
					"index":0
				},
				"metallicFactor":0,
				"roughnessFactor":0
			}
		},
		{
			"doubleSided":true,
			"name":"dots",
			"pbrMetallicRoughness":{
				"baseColorFactor":[
					0.025067372247576714,
					0.045071084052324295,
					0.19859427213668823,
					1
				],
				"metallicFactor":0.3590909242630005,
				"roughnessFactor":0
			}
		}
	],
	"meshes":[
		{
			"name":"Cube.009",
			"primitives":[
				{
					"attributes":{
						"POSITION":0,
						"NORMAL":1,
						"TEXCOORD_0":2
					},
					"indices":3,
					"material":0
				},
				{
					"attributes":{
						"POSITION":4,
						"NORMAL":5,
						"TEXCOORD_0":6
					},
					"indices":7,
					"material":1
				},
				{
					"attributes":{
						"POSITION":8,
						"NORMAL":9,
						"TEXCOORD_0":10
					},
					"indices":11,
					"material":2
				}
			]
		}
	],
	"textures":[
		{
			"extensions":{
				"EXT_texture_webp":{
					"source":0
				}
			},
			"sampler":0,
			"source":1
		}
	],
	"images":[
		{
			"mimeType":"image/webp",
			"name":"sdv-BLURE-LOGO-03-inkscape export",
			"uri":"textures/sdv-BLURE-LOGO-03-inkscape%20export.webp"
		},
		{
			"mimeType":"image/png",
			"name":"sdv-BLURE-LOGO-03-inkscape export",
			"uri":"textures/sdv-BLURE-LOGO-03-inkscape%20export.png"
		}
	],
	"accessors":[
		{
			"bufferView":0,
			"componentType":5126,
			"count":25911,
			"max":[
				1.0049982070922852,
				1.0049972534179688,
				0.9346640110015869
			],
			"min":[
				-1.0049998760223389,
				-1.005000114440918,
				-1.0049993991851807
			],
			"type":"VEC3"
		},
		{
			"bufferView":1,
			"componentType":5126,
			"count":25911,
			"type":"VEC3"
		},
		{
			"bufferView":2,
			"componentType":5126,
			"count":25911,
			"type":"VEC2"
		},
		{
			"bufferView":3,
			"componentType":5123,
			"count":142080,
			"type":"SCALAR"
		},
		{
			"bufferView":4,
			"componentType":5126,
			"count":3919,
			"max":[
				0.9364635944366455,
				0.9364635944366455,
				0.9963666796684265
			],
			"min":[
				-0.9364635944366455,
				-0.9364635944366455,
				0.8994635939598083
			],
			"type":"VEC3"
		},
		{
			"bufferView":5,
			"componentType":5126,
			"count":3919,
			"type":"VEC3"
		},
		{
			"bufferView":6,
			"componentType":5126,
			"count":3919,
			"type":"VEC2"
		},
		{
			"bufferView":7,
			"componentType":5123,
			"count":22272,
			"type":"SCALAR"
		},
		{
			"bufferView":8,
			"componentType":5126,
			"count":10660,
			"max":[
				0.9953558444976807,
				0.9953558444976807,
				0.5284722447395325
			],
			"min":[
				-0.9953558444976807,
				-0.9953558444976807,
				-0.9953558444976807
			],
			"type":"VEC3"
		},
		{
			"bufferView":9,
			"componentType":5126,
			"count":10660,
			"type":"VEC3"
		},
		{
			"bufferView":10,
			"componentType":5126,
			"count":10660,
			"type":"VEC2"
		},
		{
			"bufferView":11,
			"componentType":5123,
			"count":46080,
			"type":"SCALAR"
		}
	],
	"bufferViews":[
		{
			"buffer":0,
			"byteLength":310932,
			"byteOffset":0,
			"target":34962
		},
		{
			"buffer":0,
			"byteLength":310932,
			"byteOffset":310932,
			"target":34962
		},
		{
			"buffer":0,
			"byteLength":207288,
			"byteOffset":621864,
			"target":34962
		},
		{
			"buffer":0,
			"byteLength":284160,
			"byteOffset":829152,
			"target":34963
		},
		{
			"buffer":0,
			"byteLength":47028,
			"byteOffset":1113312,
			"target":34962
		},
		{
			"buffer":0,
			"byteLength":47028,
			"byteOffset":1160340,
			"target":34962
		},
		{
			"buffer":0,
			"byteLength":31352,
			"byteOffset":1207368,
			"target":34962
		},
		{
			"buffer":0,
			"byteLength":44544,
			"byteOffset":1238720,
			"target":34963
		},
		{
			"buffer":0,
			"byteLength":127920,
			"byteOffset":1283264,
			"target":34962
		},
		{
			"buffer":0,
			"byteLength":127920,
			"byteOffset":1411184,
			"target":34962
		},
		{
			"buffer":0,
			"byteLength":85280,
			"byteOffset":1539104,
			"target":34962
		},
		{
			"buffer":0,
			"byteLength":92160,
			"byteOffset":1624384,
			"target":34963
		}
	],
	"samplers":[
		{
			"magFilter":9729,
			"minFilter":9987,
			"wrapS":33071,
			"wrapT":33071
		}
	],
	"buffers":[
		{
			"byteLength":1716544,
			"uri":"cube-logo.bin"
		}
	]
}
